<svg version="1.1" xmlns="http://www.w3.org/2000/svg" xmlns:xlink="http://www.w3.org/1999/xlink" width="512.000000pt" height="512.000000pt" viewBox="0,0,256,256"><g fill="#dcd71f" fill-rule="nonzero" stroke="none" stroke-width="1" stroke-linecap="butt" stroke-linejoin="miter" stroke-miterlimit="10" stroke-dasharray="" stroke-dashoffset="0" font-family="none" font-weight="none" font-size="none" text-anchor="none" style="mix-blend-mode: normal"><g transform="translate(-0.01687,0.00234) scale(0.5,0.5)"><g transform="translate(0,512) scale(0.1,-0.1)"><path d="M3290,3610v-540h635h635v540v540h-635h-635zM3830,3935v-55h80h80v55v55h205h205v-380c0,-209 -1,-380 -3,-380c-2,0 -21,43 -42,95l-38,95h-53h-54l20,-50c11,-27 26,-66 35,-86c20,-48 19,-56 -6,-52c-16,2 -29,24 -57,93l-37,90l-53,3c-28,2 -52,0 -52,-3c0,-3 16,-44 35,-92c19,-48 35,-88 35,-90c0,-2 -10,-3 -22,-3c-20,0 -28,14 -59,93l-36,92l-56,3l-56,3l39,-96l39,-95h-24c-20,0 -28,13 -61,95l-37,95h-54c-29,0 -53,-1 -53,-3c0,-2 16,-42 35,-90c19,-48 35,-89 35,-93c0,-3 -10,-4 -22,-2c-17,2 -29,22 -58,93l-36,90l-52,3c-29,2 -52,-1 -52,-6c0,-5 7,-26 15,-46c9,-20 24,-59 35,-86l20,-50h-23c-20,0 -29,13 -61,95l-38,95h-49h-49v285v285h190h190zM3484,3311c14,-36 26,-68 26,-73c0,-4 -13,-8 -30,-8h-30v77c0,42 2,74 4,72c2,-2 16,-33 30,-68z"></path><path d="M4042,3707c-18,-18 -32,-43 -32,-56c0,-19 4,-23 25,-19c23,5 25,2 25,-33c0,-37 2,-39 30,-39c28,0 30,2 30,39c0,35 2,38 24,34c15,-3 25,1 29,11c8,20 -58,96 -82,96c-9,0 -31,-15 -49,-33z"></path><path d="M4221,3706c-37,-38 -39,-71 -3,-70c19,0 22,-5 22,-38c0,-36 2,-38 30,-38c28,0 30,2 30,39c0,35 2,38 24,34c16,-3 25,1 30,13c8,20 -58,94 -84,94c-9,0 -31,-15 -49,-34z"></path><path d="M4020,3500v-30h160h160v30v30h-160h-160z"></path><path d="M1469,3477c-24,-13 -57,-43 -74,-66l-30,-43l-3,-573l-3,-574l-232,-3c-220,-3 -234,-4 -275,-26c-64,-34 -120,-89 -150,-146c-23,-45 -27,-66 -30,-168l-4,-116l-29,-12c-16,-7 -39,-29 -51,-49c-20,-32 -23,-52 -26,-174c-6,-209 1,-217 183,-217h115v-43c0,-109 64,-212 164,-265c44,-23 63,-27 136,-27c70,0 93,4 130,24c99,52 159,140 168,248l5,63h308c279,0 309,-2 309,-16c0,-37 65,-146 114,-192c123,-116 274,-157 429,-117c83,22 133,50 199,113c64,61 111,143 127,225c8,36 9,361 3,1067l-7,1015l-24,3c-52,8 -51,18 -51,-690v-658h-99c-94,0 -99,1 -104,23c-8,32 -247,1243 -247,1250c0,4 14,7 31,7c39,0 89,48 89,85c0,14 -11,37 -25,50l-24,25h-489h-489zM2380,2713c68,-346 125,-634 128,-641c3,-10 -8,-12 -49,-10l-53,3l-83,215c-46,118 -86,224 -89,236c-4,16 3,26 30,45c41,27 53,53 36,74c-21,25 -43,17 -148,-56c-101,-69 -117,-90 -90,-117c17,-17 36,-15 68,8c26,19 28,19 35,2c22,-55 155,-404 155,-408c0,-2 -92,-4 -205,-4h-205v55c0,73 -28,105 -92,105h-43l52,35c51,34 55,35 148,35c88,0 98,2 120,25c33,33 32,70 -4,106c-29,29 -30,29 -149,29h-119l-38,190c-33,168 -41,193 -63,210c-32,26 -63,25 -96,-1c-36,-28 -34,-52 16,-304c35,-178 46,-214 66,-234l25,-25l-24,-15c-13,-9 -30,-24 -38,-33c-12,-14 -31,-18 -83,-18h-68v548c0,413 3,551 12,560c9,9 104,12 368,12h356zM1752,1999c8,-106 -31,-99 549,-99h499v-76v-76l-32,22c-184,122 -422,98 -576,-57c-59,-59 -105,-141 -117,-207l-7,-36h-343h-343l-52,35c-111,75 -229,75 -340,0c-51,-35 -53,-35 -161,-35h-109v65v64l34,7c64,12 70,28 76,203c6,172 12,191 73,230c31,20 47,21 438,21h407zM2636,1662c62,-32 97,-65 128,-122c61,-112 43,-235 -48,-325c-91,-91 -219,-112 -334,-54c-106,53 -156,132 -156,249c0,64 4,83 29,128c33,61 84,106 153,133c62,25 170,21 228,-9zM1229,1382c92,-49 92,-190 2,-237c-96,-49 -211,16 -211,120c0,104 114,168 209,117z"></path><path d="M3031,3424c-21,-27 -21,-32 -21,-870v-843l24,-28l24,-28h382h382l25,29c29,35 26,80 -8,109c-19,15 -51,17 -345,17h-324v794c0,787 0,793 -21,820c-16,20 -29,26 -59,26c-30,0 -43,-6 -59,-26z"></path><path d="M3290,2450v-540h635h635v540v540h-635h-635zM3830,2775v-55h80h80v55v55h205h205v-380c0,-209 -1,-380 -3,-380c-2,0 -21,43 -42,95l-38,95h-53h-54l20,-50c11,-27 26,-66 35,-86c20,-48 19,-56 -6,-52c-16,2 -29,24 -57,93l-37,90l-53,3c-28,2 -52,0 -52,-3c0,-3 16,-44 35,-92c19,-48 35,-88 35,-90c0,-2 -10,-3 -22,-3c-20,0 -28,14 -59,93l-36,92l-56,3l-56,3l39,-96l39,-95h-24c-20,0 -28,13 -61,95l-37,95h-54c-29,0 -53,-1 -53,-3c0,-2 16,-42 35,-90c19,-48 35,-89 35,-93c0,-3 -10,-4 -22,-2c-17,2 -29,22 -58,93l-36,90l-52,3c-29,2 -52,-1 -52,-6c0,-5 7,-26 15,-46c9,-20 24,-59 35,-86l20,-50h-23c-20,0 -29,13 -61,95l-38,95h-49h-49v285v285h190h190zM3484,2151c14,-36 26,-68 26,-73c0,-4 -13,-8 -30,-8h-30v77c0,42 2,74 4,72c2,-2 16,-33 30,-68z"></path><path d="M4042,2547c-18,-18 -32,-43 -32,-56c0,-19 4,-23 25,-19c23,5 25,2 25,-33c0,-37 2,-39 30,-39c28,0 30,2 30,39c0,35 2,38 24,34c15,-3 25,1 29,11c8,20 -58,96 -82,96c-9,0 -31,-15 -49,-33z"></path><path d="M4221,2546c-37,-38 -39,-71 -3,-70c19,0 22,-5 22,-38c0,-36 2,-38 30,-38c28,0 30,2 30,39c0,35 2,38 25,33c17,-3 27,1 31,13c8,19 -61,95 -86,95c-9,0 -31,-15 -49,-34z"></path><path d="M4020,2340v-30h160h160v30v30h-160h-160z"></path></g></g></g></svg>