<?xml version="1.0" standalone="no"?>
<!DOCTYPE svg PUBLIC "-//W3C//DTD SVG 20010904//EN"
 "http://www.w3.org/TR/2001/REC-SVG-20010904/DTD/svg10.dtd">
<svg version="1.0" xmlns="http://www.w3.org/2000/svg"
 width="1920.000000pt" height="1920.000000pt" viewBox="0 0 1920.000000 1920.000000"
 preserveAspectRatio="xMidYMid meet">

<g transform="translate(0.000000,1920.000000) scale(0.100000,-0.100000)"
fill="#000000" stroke="none">
<path d="M9285 18399 c-603 -28 -1183 -138 -1770 -334 -318 -106 -506 -184
-830 -345 -931 -461 -1712 -1111 -2336 -1943 -1041 -1388 -1485 -3123 -1243
-4852 149 -1061 565 -2082 1201 -2952 69 -94 4459 -6457 4726 -6851 152 -223
330 -326 567 -326 237 0 415 103 567 326 267 394 4657 6757 4726 6851 356 487
660 1054 865 1612 625 1711 515 3606 -303 5220 -568 1121 -1425 2037 -2515
2688 -197 118 -622 330 -845 423 -207 85 -613 221 -835 278 -653 168 -1307
236 -1975 205z m540 -2559 c1065 -71 2022 -569 2682 -1397 424 -532 684 -1153
780 -1863 26 -193 26 -697 0 -890 -99 -735 -364 -1353 -822 -1915 -161 -198
-421 -446 -640 -611 -1117 -841 -2632 -977 -3883 -350 -374 187 -668 401 -972
705 -528 529 -880 1195 -1019 1931 -47 249 -56 362 -56 685 0 324 9 437 56
685 167 878 635 1656 1335 2216 713 571 1636 863 2539 804z"/>
</g>
</svg>
